<?xml version="1.0" encoding="UTF-8" standalone="no"?>
<!-- Created with Inkscape (http://www.inkscape.org/) -->

<svg
   width="210mm"
   height="297mm"
   viewBox="0 0 210 297"
   version="1.1"
   id="svg5"
   inkscape:version="1.1.1 (3bf5ae0d25, 2021-09-20)"
   sodipodi:docname="marquee.svg"
   xmlns:inkscape="http://www.inkscape.org/namespaces/inkscape"
   xmlns:sodipodi="http://sodipodi.sourceforge.net/DTD/sodipodi-0.dtd"
   xmlns="http://www.w3.org/2000/svg"
   xmlns:svg="http://www.w3.org/2000/svg">
  <sodipodi:namedview
     id="namedview7"
     pagecolor="#ffffff"
     bordercolor="#666666"
     borderopacity="1.0"
     inkscape:pageshadow="2"
     inkscape:pageopacity="0.0"
     inkscape:pagecheckerboard="0"
     inkscape:document-units="mm"
     showgrid="false"
     inkscape:zoom="3.1108586"
     inkscape:cx="326.11576"
     inkscape:cy="217.78553"
     inkscape:window-width="2560"
     inkscape:window-height="1377"
     inkscape:window-x="-8"
     inkscape:window-y="-8"
     inkscape:window-maximized="1"
     inkscape:current-layer="layer1" />
  <defs
     id="defs2" />
  <g
     inkscape:label="Layer 1"
     inkscape:groupmode="layer"
     id="layer1">
    <rect
       style="fill:#000000;fill-opacity:1;stroke:#000000;stroke-width:0.562358;stroke-miterlimit:4;stroke-dasharray:none;stroke-opacity:1;paint-order:markers stroke fill"
       id="rect28483"
       width="110.17677"
       height="43.020344"
       x="29.924631"
       y="41.117146"
       inkscape:export-filename="C:\Users\amone\3D Objects\arcade\marquee.png"
       inkscape:export-xdpi="192.32402"
       inkscape:export-ydpi="192.32402" />
    <g
       aria-label="Andy O'Neill"
       id="text5930-5"
       style="font-size:10.5833px;line-height:1.25;stroke-width:0.264583"
       transform="translate(0.80898,0.52916667)">
      <path
         d="m 39.723677,64.084423 q 0,-0.275166 0.190499,-0.465665 0.1905,-0.1905 0.465666,-0.1905 0.275165,0 0.465665,0.1905 0.190499,0.190499 0.190499,0.465665 0,0.275166 -0.190499,0.465665 -0.1905,0.190499 -0.465665,0.190499 -0.275166,0 -0.465666,-0.190499 -0.190499,-0.190499 -0.190499,-0.465665 z m -2.233076,0.952497 q -0.15875,0.190499 -0.391582,0.190499 -0.211666,0 -0.359833,-0.148166 -0.148166,-0.148166 -0.148166,-0.359832 0,-0.1905 0.105833,-0.306916 l 2.571742,-3.460739 q 0.179916,-0.243416 0.476249,-0.391582 0.296332,-0.15875 0.634998,-0.15875 0.317499,0 0.603248,0.137583 0.285749,0.137583 0.465665,0.380999 l 2.571742,3.439573 q 0.0635,0.07408 0.105833,0.169332 0.04233,0.08467 0.04233,0.1905 0,0.211666 -0.148166,0.359832 -0.148167,0.148166 -0.359833,0.148166 -0.253999,0 -0.402165,-0.201083 L 40.79259,61.73493 q -0.07408,-0.08467 -0.190499,-0.179916 -0.105833,-0.105833 -0.222249,-0.105833 -0.116417,0 -0.232833,0.105833 -0.105833,0.09525 -0.169333,0.179916 z"
         style="font-family:'Space Age';-inkscape-font-specification:'Space Age, Normal';fill:#955120;fill-opacity:1"
         id="path27951-0" />
      <path
         d="m 52.434219,61.121099 q 0,-0.211666 0.148167,-0.359832 0.148166,-0.148167 0.359832,-0.148167 0.211666,0 0.359832,0.148167 0.148166,0.148166 0.148166,0.359832 v 3.07974 q 0,0.433915 -0.296332,0.730248 -0.285749,0.296332 -0.719665,0.296332 -0.148166,0 -0.296332,-0.04233 -0.137583,-0.04233 -0.253999,-0.116416 l -4.847151,-2.963324 q -0.201083,-0.116417 -0.338666,-0.179916 -0.127,-0.07408 -0.211666,-0.07408 -0.15875,0 -0.201083,0.201082 -0.04233,0.201083 -0.04233,0.582082 v 2.08491 q 0,0.211666 -0.148166,0.359832 -0.148166,0.148166 -0.359832,0.148166 -0.211666,0 -0.359832,-0.148166 -0.148167,-0.148166 -0.148167,-0.359832 v -3.07974 q 0,-0.433916 0.285749,-0.730248 0.296333,-0.296333 0.730248,-0.296333 0.148166,0 0.285749,0.04233 0.148166,0.04233 0.264583,0.116416 l 4.847151,2.963324 q 0.201083,0.116416 0.328082,0.190499 0.137583,0.0635 0.222249,0.0635 0.15875,0 0.201083,-0.201083 0.04233,-0.201082 0.04233,-0.582081 v -2.08491 z"
         style="font-family:'Space Age';-inkscape-font-specification:'Space Age, Normal';fill:#955120;fill-opacity:1"
         id="path27953-7" />
      <path
         d="m 60.964348,64.211422 q 0.359832,0 0.592665,-0.126999 0.232832,-0.137583 0.359832,-0.328083 0.137583,-0.190499 0.179916,-0.412748 0.05292,-0.232833 0.05292,-0.423332 0,-0.1905 -0.05292,-0.412749 -0.04233,-0.232832 -0.179916,-0.423332 -0.127,-0.190499 -0.359832,-0.317499 -0.232833,-0.137583 -0.592665,-0.137583 h -5.947815 q -0.211666,0 -0.359832,-0.148166 -0.148166,-0.148166 -0.148166,-0.359832 0,-0.211666 0.148166,-0.359832 0.148166,-0.148167 0.359832,-0.148167 h 6.170064 q 0.455082,0 0.814914,0.211666 0.359832,0.211666 0.613832,0.550332 0.253999,0.328082 0.380998,0.740831 0.137583,0.402165 0.137583,0.804331 0,0.391582 -0.126999,0.793747 -0.127,0.402166 -0.370416,0.730248 -0.232832,0.328082 -0.571498,0.550332 -0.338666,0.211666 -0.772581,0.232832 h -6.275897 q -0.211666,0 -0.359832,-0.148166 -0.148166,-0.148166 -0.148166,-0.359832 V 62.92026 q 0,-0.211666 0.148166,-0.359832 0.148166,-0.148167 0.359832,-0.148167 0.211666,0 0.359833,0.148167 0.148166,0.148166 0.148166,0.359832 v 1.291162 z"
         style="font-family:'Space Age';-inkscape-font-specification:'Space Age, Normal';fill:#955120;fill-opacity:1"
         id="path27955-24" />
      <path
         d="m 68.954728,64.719421 q 0,0.211666 -0.148166,0.359832 -0.148166,0.148166 -0.359832,0.148166 -0.211666,0 -0.359832,-0.148166 -0.148167,-0.148166 -0.148167,-0.359832 v -1.291163 q -0.402165,0 -0.783164,-0.105833 -0.380999,-0.105833 -0.804331,-0.328082 -0.412748,-0.232833 -0.888997,-0.592665 -0.476248,-0.359832 -1.068913,-0.878414 -0.08467,-0.07408 -0.148166,-0.179916 -0.05292,-0.105833 -0.05292,-0.222249 0,-0.211666 0.148166,-0.359832 0.148167,-0.148167 0.359833,-0.148167 0.105833,0 0.190499,0.04233 0.08467,0.04233 0.169333,0.105833 0.677331,0.592664 1.132413,0.93133 0.465665,0.328082 0.825497,0.486832 0.370416,0.158749 0.698498,0.201083 0.328082,0.03175 0.740831,0.03175 0.412749,0 0.730248,-0.03175 0.317499,-0.03175 0.677331,-0.1905 0.359832,-0.158749 0.814914,-0.486832 0.465665,-0.338665 1.15358,-0.941913 0.179916,-0.148167 0.359832,-0.148167 0.211666,0 0.359832,0.148167 0.148166,0.148166 0.148166,0.359832 0,0.116416 -0.0635,0.222249 -0.05292,0.105833 -0.137582,0.179916 -0.582082,0.507999 -1.068914,0.878414 -0.486832,0.359832 -0.920747,0.592665 -0.423332,0.222249 -0.814914,0.328082 -0.380999,0.105833 -0.740831,0.105833 v 1.291163 z"
         style="font-family:'Space Age';-inkscape-font-specification:'Space Age, Normal';fill:#955120;fill-opacity:1"
         id="path27957-1" />
      <path
         d="m 84.967242,64.211422 q 0.359832,0 0.592665,-0.126999 0.232832,-0.137583 0.359832,-0.328083 0.137583,-0.190499 0.179916,-0.412748 0.05292,-0.232833 0.05292,-0.423332 0,-0.1905 -0.05292,-0.412749 -0.04233,-0.232832 -0.179916,-0.423332 -0.127,-0.190499 -0.359832,-0.317499 -0.232833,-0.137583 -0.592665,-0.137583 h -4.275653 q -0.370416,0 -0.603248,0.137583 -0.22225,0.127 -0.359832,0.317499 -0.127,0.1905 -0.179917,0.423332 -0.04233,0.222249 -0.04233,0.412749 0,0.190499 0.04233,0.423332 0.05292,0.222249 0.179917,0.412748 0.137582,0.1905 0.359832,0.328083 0.232832,0.126999 0.603248,0.126999 z m 2.169576,-1.291162 q 0,0.402165 -0.137583,0.814914 -0.126999,0.402165 -0.380998,0.740831 -0.254,0.328082 -0.613832,0.539748 -0.359832,0.211666 -0.814914,0.211666 h -4.825984 q -0.433916,-0.02117 -0.772581,-0.232832 -0.338666,-0.22225 -0.582082,-0.550332 -0.232832,-0.328082 -0.359832,-0.730248 -0.127,-0.402165 -0.127,-0.793747 0,-0.402166 0.127,-0.804331 0.137583,-0.412749 0.391582,-0.740831 0.253999,-0.338666 0.613831,-0.550332 Q 80.014258,60.6131 80.46934,60.6131 h 4.825984 q 0.433915,0.02117 0.772581,0.243416 0.338666,0.211666 0.571498,0.539749 0.243416,0.328082 0.370416,0.730247 0.126999,0.402166 0.126999,0.793748 z"
         style="font-family:'Space Age';-inkscape-font-specification:'Space Age, Normal';fill:#955120;fill-opacity:1"
         id="path27959-9" />
      <path
         d="m 89.211139,61.904263 q 0,0.211666 -0.148166,0.359832 -0.148166,0.148166 -0.359832,0.148166 -0.211666,0 -0.359832,-0.148166 -0.148167,-0.148166 -0.148167,-0.359832 v -0.783164 q 0,-0.211666 0.148167,-0.359832 0.148166,-0.148167 0.359832,-0.148167 0.211666,0 0.359832,0.148167 0.148166,0.148166 0.148166,0.359832 z"
         style="font-family:'Space Age';-inkscape-font-specification:'Space Age, Normal';fill:#955120;fill-opacity:1"
         id="path27961-9" />
      <path
         d="m 97.476687,62.92026 q 0,-0.1905 -0.05292,-0.412749 -0.04233,-0.232832 -0.179916,-0.423332 -0.127,-0.190499 -0.359832,-0.317499 -0.232833,-0.137583 -0.592665,-0.137583 h -3.820571 q -0.370416,0 -0.603248,0.137583 -0.22225,0.127 -0.359833,0.317499 -0.126999,0.1905 -0.179916,0.423332 -0.04233,0.222249 -0.04233,0.412749 v 1.799161 q 0,0.211666 -0.148166,0.359832 -0.148166,0.148166 -0.359832,0.148166 -0.211666,0 -0.359832,-0.148166 Q 90.26946,64.931087 90.26946,64.719421 V 62.92026 q 0,-0.402166 0.127,-0.804331 0.137583,-0.412749 0.391582,-0.740831 0.253999,-0.338666 0.613831,-0.550332 0.359833,-0.211666 0.814915,-0.211666 h 4.434402 q 0.433915,0.02117 0.772581,0.243416 0.338666,0.211666 0.571498,0.539749 0.243416,0.328082 0.370416,0.730247 0.126999,0.402166 0.126999,0.793748 v 1.799161 q 0,0.211666 -0.148166,0.359832 -0.148166,0.148166 -0.359832,0.148166 -0.211666,0 -0.359832,-0.148166 -0.148167,-0.148166 -0.148167,-0.359832 z"
         style="font-family:'Space Age';-inkscape-font-specification:'Space Age, Normal';fill:#955120;fill-opacity:1"
         id="path27963-6" />
      <path
         d="m 99.551004,61.121099 q 0,-0.211666 0.148166,-0.359832 Q 99.847337,60.6131 100.059,60.6131 h 7.50356 q 0.21167,0 0.35983,0.148167 0.14817,0.148166 0.14817,0.359832 0,0.211666 -0.14817,0.359832 -0.14816,0.148166 -0.35983,0.148166 H 100.059 q -0.211663,0 -0.35983,-0.148166 -0.148166,-0.148166 -0.148166,-0.359832 z m 1.291166,4.10632 q -0.23284,0 -0.46567,-0.09525 -0.23283,-0.105833 -0.412747,-0.285749 -0.179916,-0.179916 -0.296333,-0.433915 -0.116416,-0.253999 -0.116416,-0.571498 V 62.88851 q 0,-0.285749 0.15875,-0.380999 0.169332,-0.09525 0.518586,-0.09525 h 7.10139 q 0.21167,0 0.35983,0.148167 0.14817,0.148166 0.14817,0.359832 0,0.211666 -0.14817,0.359832 -0.14816,0.148166 -0.35983,0.148166 H 100.567 v 0.518582 q 0,0.105833 0.0847,0.190499 0.0953,0.07408 0.24341,0.07408 h 6.66748 q 0.21167,0 0.35983,0.148167 0.14817,0.148166 0.14817,0.359832 0,0.211666 -0.14817,0.359832 -0.14816,0.148166 -0.35983,0.148166 z"
         style="font-family:'Space Age';-inkscape-font-specification:'Space Age, Normal';fill:#955120;fill-opacity:1"
         id="path27965-7" />
      <path
         d="m 110.14487,64.719421 q 0,0.211666 -0.14816,0.359832 -0.14817,0.148166 -0.35983,0.148166 -0.21167,0 -0.35984,-0.148166 -0.14816,-0.148166 -0.14816,-0.359832 v -3.598322 q 0,-0.211666 0.14816,-0.359832 0.14817,-0.148167 0.35984,-0.148167 0.21166,0 0.35983,0.148167 0.14816,0.148166 0.14816,0.359832 z"
         style="font-family:'Space Age';-inkscape-font-specification:'Space Age, Normal';fill:#955120;fill-opacity:1"
         id="path27967-4" />
      <path
         d="m 112.65311,65.227419 q -0.29634,0 -0.56092,-0.105833 -0.26458,-0.116416 -0.46566,-0.306916 -0.1905,-0.190499 -0.30692,-0.444498 -0.11641,-0.253999 -0.11641,-0.550332 v -2.698741 q 0,-0.211666 0.14816,-0.359832 0.14817,-0.148167 0.35983,-0.148167 0.20109,0 0.34925,0.148167 0.15875,0.148166 0.15875,0.359832 v 2.698741 q 0,0.15875 0.11642,0.275166 0.127,0.116416 0.28575,0.116416 h 6.34998 q 0.21166,0 0.35983,0.148167 0.14817,0.148166 0.14817,0.359832 0,0.211666 -0.14817,0.359832 -0.14817,0.148166 -0.35983,0.148166 z"
         style="font-family:'Space Age';-inkscape-font-specification:'Space Age, Normal';fill:#955120;fill-opacity:1"
         id="path27969-0" />
      <path
         d="m 121.98757,65.227419 q -0.29633,0 -0.56091,-0.105833 -0.26459,-0.116416 -0.46567,-0.306916 -0.1905,-0.190499 -0.30691,-0.444498 -0.11642,-0.253999 -0.11642,-0.550332 v -2.698741 q 0,-0.211666 0.14817,-0.359832 0.14816,-0.148167 0.35983,-0.148167 0.20108,0 0.34925,0.148167 0.15875,0.148166 0.15875,0.359832 v 2.698741 q 0,0.15875 0.11641,0.275166 0.127,0.116416 0.28575,0.116416 h 6.34998 q 0.21167,0 0.35983,0.148167 0.14817,0.148166 0.14817,0.359832 0,0.211666 -0.14817,0.359832 -0.14816,0.148166 -0.35983,0.148166 z"
         style="font-family:'Space Age';-inkscape-font-specification:'Space Age, Normal';fill:#955120;fill-opacity:1"
         id="path27971-9" />
    </g>
    <g
       aria-label="Andy O'Neill"
       id="text5930-9"
       style="font-size:10.5833px;line-height:1.25;stroke-width:0.465;stroke:#000000;stroke-opacity:1;stroke-miterlimit:4;stroke-dasharray:none">
      <path
         d="m 39.723677,64.084423 q 0,-0.275166 0.190499,-0.465665 0.1905,-0.1905 0.465666,-0.1905 0.275165,0 0.465665,0.1905 0.190499,0.190499 0.190499,0.465665 0,0.275166 -0.190499,0.465665 -0.1905,0.190499 -0.465665,0.190499 -0.275166,0 -0.465666,-0.190499 -0.190499,-0.190499 -0.190499,-0.465665 z m -2.233076,0.952497 q -0.15875,0.190499 -0.391582,0.190499 -0.211666,0 -0.359833,-0.148166 -0.148166,-0.148166 -0.148166,-0.359832 0,-0.1905 0.105833,-0.306916 l 2.571742,-3.460739 q 0.179916,-0.243416 0.476249,-0.391582 0.296332,-0.15875 0.634998,-0.15875 0.317499,0 0.603248,0.137583 0.285749,0.137583 0.465665,0.380999 l 2.571742,3.439573 q 0.0635,0.07408 0.105833,0.169332 0.04233,0.08467 0.04233,0.1905 0,0.211666 -0.148166,0.359832 -0.148167,0.148166 -0.359833,0.148166 -0.253999,0 -0.402165,-0.201083 L 40.79259,61.73493 q -0.07408,-0.08467 -0.190499,-0.179916 -0.105833,-0.105833 -0.222249,-0.105833 -0.116417,0 -0.232833,0.105833 -0.105833,0.09525 -0.169333,0.179916 z"
         style="font-family:'Space Age';-inkscape-font-specification:'Space Age, Normal';fill:#19a0a6;stroke:#000000;stroke-opacity:1;stroke-width:0.465;stroke-miterlimit:4;stroke-dasharray:none"
         id="path27951-8" />
      <path
         d="m 52.434219,61.121099 q 0,-0.211666 0.148167,-0.359832 0.148166,-0.148167 0.359832,-0.148167 0.211666,0 0.359832,0.148167 0.148166,0.148166 0.148166,0.359832 v 3.07974 q 0,0.433915 -0.296332,0.730248 -0.285749,0.296332 -0.719665,0.296332 -0.148166,0 -0.296332,-0.04233 -0.137583,-0.04233 -0.253999,-0.116416 l -4.847151,-2.963324 q -0.201083,-0.116417 -0.338666,-0.179916 -0.127,-0.07408 -0.211666,-0.07408 -0.15875,0 -0.201083,0.201082 -0.04233,0.201083 -0.04233,0.582082 v 2.08491 q 0,0.211666 -0.148166,0.359832 -0.148166,0.148166 -0.359832,0.148166 -0.211666,0 -0.359832,-0.148166 -0.148167,-0.148166 -0.148167,-0.359832 v -3.07974 q 0,-0.433916 0.285749,-0.730248 0.296333,-0.296333 0.730248,-0.296333 0.148166,0 0.285749,0.04233 0.148166,0.04233 0.264583,0.116416 l 4.847151,2.963324 q 0.201083,0.116416 0.328082,0.190499 0.137583,0.0635 0.222249,0.0635 0.15875,0 0.201083,-0.201083 0.04233,-0.201082 0.04233,-0.582081 v -2.08491 z"
         style="font-family:'Space Age';-inkscape-font-specification:'Space Age, Normal';fill:#19a0a6;stroke:#000000;stroke-opacity:1;stroke-width:0.465;stroke-miterlimit:4;stroke-dasharray:none"
         id="path27953-0" />
      <path
         d="m 60.964348,64.211422 q 0.359832,0 0.592665,-0.126999 0.232832,-0.137583 0.359832,-0.328083 0.137583,-0.190499 0.179916,-0.412748 0.05292,-0.232833 0.05292,-0.423332 0,-0.1905 -0.05292,-0.412749 -0.04233,-0.232832 -0.179916,-0.423332 -0.127,-0.190499 -0.359832,-0.317499 -0.232833,-0.137583 -0.592665,-0.137583 h -5.947815 q -0.211666,0 -0.359832,-0.148166 -0.148166,-0.148166 -0.148166,-0.359832 0,-0.211666 0.148166,-0.359832 0.148166,-0.148167 0.359832,-0.148167 h 6.170064 q 0.455082,0 0.814914,0.211666 0.359832,0.211666 0.613832,0.550332 0.253999,0.328082 0.380998,0.740831 0.137583,0.402165 0.137583,0.804331 0,0.391582 -0.126999,0.793747 -0.127,0.402166 -0.370416,0.730248 -0.232832,0.328082 -0.571498,0.550332 -0.338666,0.211666 -0.772581,0.232832 h -6.275897 q -0.211666,0 -0.359832,-0.148166 -0.148166,-0.148166 -0.148166,-0.359832 V 62.92026 q 0,-0.211666 0.148166,-0.359832 0.148166,-0.148167 0.359832,-0.148167 0.211666,0 0.359833,0.148167 0.148166,0.148166 0.148166,0.359832 v 1.291162 z"
         style="font-family:'Space Age';-inkscape-font-specification:'Space Age, Normal';fill:#19a0a6;stroke:#000000;stroke-opacity:1;stroke-width:0.465;stroke-miterlimit:4;stroke-dasharray:none"
         id="path27955-2" />
      <path
         d="m 68.954728,64.719421 q 0,0.211666 -0.148166,0.359832 -0.148166,0.148166 -0.359832,0.148166 -0.211666,0 -0.359832,-0.148166 -0.148167,-0.148166 -0.148167,-0.359832 v -1.291163 q -0.402165,0 -0.783164,-0.105833 -0.380999,-0.105833 -0.804331,-0.328082 -0.412748,-0.232833 -0.888997,-0.592665 -0.476248,-0.359832 -1.068913,-0.878414 -0.08467,-0.07408 -0.148166,-0.179916 -0.05292,-0.105833 -0.05292,-0.222249 0,-0.211666 0.148166,-0.359832 0.148167,-0.148167 0.359833,-0.148167 0.105833,0 0.190499,0.04233 0.08467,0.04233 0.169333,0.105833 0.677331,0.592664 1.132413,0.93133 0.465665,0.328082 0.825497,0.486832 0.370416,0.158749 0.698498,0.201083 0.328082,0.03175 0.740831,0.03175 0.412749,0 0.730248,-0.03175 0.317499,-0.03175 0.677331,-0.1905 0.359832,-0.158749 0.814914,-0.486832 0.465665,-0.338665 1.15358,-0.941913 0.179916,-0.148167 0.359832,-0.148167 0.211666,0 0.359832,0.148167 0.148166,0.148166 0.148166,0.359832 0,0.116416 -0.0635,0.222249 -0.05292,0.105833 -0.137582,0.179916 -0.582082,0.507999 -1.068914,0.878414 -0.486832,0.359832 -0.920747,0.592665 -0.423332,0.222249 -0.814914,0.328082 -0.380999,0.105833 -0.740831,0.105833 v 1.291163 z"
         style="font-family:'Space Age';-inkscape-font-specification:'Space Age, Normal';fill:#19a0a6;stroke:#000000;stroke-opacity:1;stroke-width:0.465;stroke-miterlimit:4;stroke-dasharray:none"
         id="path27957-7" />
      <path
         d="m 84.967242,64.211422 q 0.359832,0 0.592665,-0.126999 0.232832,-0.137583 0.359832,-0.328083 0.137583,-0.190499 0.179916,-0.412748 0.05292,-0.232833 0.05292,-0.423332 0,-0.1905 -0.05292,-0.412749 -0.04233,-0.232832 -0.179916,-0.423332 -0.127,-0.190499 -0.359832,-0.317499 -0.232833,-0.137583 -0.592665,-0.137583 h -4.275653 q -0.370416,0 -0.603248,0.137583 -0.22225,0.127 -0.359832,0.317499 -0.127,0.1905 -0.179917,0.423332 -0.04233,0.222249 -0.04233,0.412749 0,0.190499 0.04233,0.423332 0.05292,0.222249 0.179917,0.412748 0.137582,0.1905 0.359832,0.328083 0.232832,0.126999 0.603248,0.126999 z m 2.169576,-1.291162 q 0,0.402165 -0.137583,0.814914 -0.126999,0.402165 -0.380998,0.740831 -0.254,0.328082 -0.613832,0.539748 -0.359832,0.211666 -0.814914,0.211666 h -4.825984 q -0.433916,-0.02117 -0.772581,-0.232832 -0.338666,-0.22225 -0.582082,-0.550332 -0.232832,-0.328082 -0.359832,-0.730248 -0.127,-0.402165 -0.127,-0.793747 0,-0.402166 0.127,-0.804331 0.137583,-0.412749 0.391582,-0.740831 0.253999,-0.338666 0.613831,-0.550332 Q 80.014258,60.6131 80.46934,60.6131 h 4.825984 q 0.433915,0.02117 0.772581,0.243416 0.338666,0.211666 0.571498,0.539749 0.243416,0.328082 0.370416,0.730247 0.126999,0.402166 0.126999,0.793748 z"
         style="font-family:'Space Age';-inkscape-font-specification:'Space Age, Normal';fill:#19a0a6;stroke:#000000;stroke-opacity:1;stroke-width:0.465;stroke-miterlimit:4;stroke-dasharray:none"
         id="path27959-4" />
      <path
         d="m 89.211139,61.904263 q 0,0.211666 -0.148166,0.359832 -0.148166,0.148166 -0.359832,0.148166 -0.211666,0 -0.359832,-0.148166 -0.148167,-0.148166 -0.148167,-0.359832 v -0.783164 q 0,-0.211666 0.148167,-0.359832 0.148166,-0.148167 0.359832,-0.148167 0.211666,0 0.359832,0.148167 0.148166,0.148166 0.148166,0.359832 z"
         style="font-family:'Space Age';-inkscape-font-specification:'Space Age, Normal';fill:#19a0a6;stroke:#000000;stroke-opacity:1;stroke-width:0.465;stroke-miterlimit:4;stroke-dasharray:none"
         id="path27961-3" />
      <path
         d="m 97.476687,62.92026 q 0,-0.1905 -0.05292,-0.412749 -0.04233,-0.232832 -0.179916,-0.423332 -0.127,-0.190499 -0.359832,-0.317499 -0.232833,-0.137583 -0.592665,-0.137583 h -3.820571 q -0.370416,0 -0.603248,0.137583 -0.22225,0.127 -0.359833,0.317499 -0.126999,0.1905 -0.179916,0.423332 -0.04233,0.222249 -0.04233,0.412749 v 1.799161 q 0,0.211666 -0.148166,0.359832 -0.148166,0.148166 -0.359832,0.148166 -0.211666,0 -0.359832,-0.148166 Q 90.26946,64.931087 90.26946,64.719421 V 62.92026 q 0,-0.402166 0.127,-0.804331 0.137583,-0.412749 0.391582,-0.740831 0.253999,-0.338666 0.613831,-0.550332 0.359833,-0.211666 0.814915,-0.211666 h 4.434402 q 0.433915,0.02117 0.772581,0.243416 0.338666,0.211666 0.571498,0.539749 0.243416,0.328082 0.370416,0.730247 0.126999,0.402166 0.126999,0.793748 v 1.799161 q 0,0.211666 -0.148166,0.359832 -0.148166,0.148166 -0.359832,0.148166 -0.211666,0 -0.359832,-0.148166 -0.148167,-0.148166 -0.148167,-0.359832 z"
         style="font-family:'Space Age';-inkscape-font-specification:'Space Age, Normal';fill:#19a0a6;stroke:#000000;stroke-opacity:1;stroke-width:0.465;stroke-miterlimit:4;stroke-dasharray:none"
         id="path27963-5" />
      <path
         d="m 99.551004,61.121099 q 0,-0.211666 0.148166,-0.359832 Q 99.847337,60.6131 100.059,60.6131 h 7.50356 q 0.21167,0 0.35983,0.148167 0.14817,0.148166 0.14817,0.359832 0,0.211666 -0.14817,0.359832 -0.14816,0.148166 -0.35983,0.148166 H 100.059 q -0.211663,0 -0.35983,-0.148166 -0.148166,-0.148166 -0.148166,-0.359832 z m 1.291166,4.10632 q -0.23284,0 -0.46567,-0.09525 -0.23283,-0.105833 -0.412747,-0.285749 -0.179916,-0.179916 -0.296333,-0.433915 -0.116416,-0.253999 -0.116416,-0.571498 V 62.88851 q 0,-0.285749 0.15875,-0.380999 0.169332,-0.09525 0.518586,-0.09525 h 7.10139 q 0.21167,0 0.35983,0.148167 0.14817,0.148166 0.14817,0.359832 0,0.211666 -0.14817,0.359832 -0.14816,0.148166 -0.35983,0.148166 H 100.567 v 0.518582 q 0,0.105833 0.0847,0.190499 0.0953,0.07408 0.24341,0.07408 h 6.66748 q 0.21167,0 0.35983,0.148167 0.14817,0.148166 0.14817,0.359832 0,0.211666 -0.14817,0.359832 -0.14816,0.148166 -0.35983,0.148166 z"
         style="font-family:'Space Age';-inkscape-font-specification:'Space Age, Normal';fill:#19a0a6;stroke:#000000;stroke-opacity:1;stroke-width:0.465;stroke-miterlimit:4;stroke-dasharray:none"
         id="path27965-8" />
      <path
         d="m 110.14487,64.719421 q 0,0.211666 -0.14816,0.359832 -0.14817,0.148166 -0.35983,0.148166 -0.21167,0 -0.35984,-0.148166 -0.14816,-0.148166 -0.14816,-0.359832 v -3.598322 q 0,-0.211666 0.14816,-0.359832 0.14817,-0.148167 0.35984,-0.148167 0.21166,0 0.35983,0.148167 0.14816,0.148166 0.14816,0.359832 z"
         style="font-family:'Space Age';-inkscape-font-specification:'Space Age, Normal';fill:#19a0a6;stroke:#000000;stroke-opacity:1;stroke-width:0.465;stroke-miterlimit:4;stroke-dasharray:none"
         id="path27967-2" />
      <path
         d="m 112.65311,65.227419 q -0.29634,0 -0.56092,-0.105833 -0.26458,-0.116416 -0.46566,-0.306916 -0.1905,-0.190499 -0.30692,-0.444498 -0.11641,-0.253999 -0.11641,-0.550332 v -2.698741 q 0,-0.211666 0.14816,-0.359832 0.14817,-0.148167 0.35983,-0.148167 0.20109,0 0.34925,0.148167 0.15875,0.148166 0.15875,0.359832 v 2.698741 q 0,0.15875 0.11642,0.275166 0.127,0.116416 0.28575,0.116416 h 6.34998 q 0.21166,0 0.35983,0.148167 0.14817,0.148166 0.14817,0.359832 0,0.211666 -0.14817,0.359832 -0.14817,0.148166 -0.35983,0.148166 z"
         style="font-family:'Space Age';-inkscape-font-specification:'Space Age, Normal';fill:#19a0a6;stroke:#000000;stroke-opacity:1;stroke-width:0.465;stroke-miterlimit:4;stroke-dasharray:none"
         id="path27969-3" />
      <path
         d="m 121.98757,65.227419 q -0.29633,0 -0.56091,-0.105833 -0.26459,-0.116416 -0.46567,-0.306916 -0.1905,-0.190499 -0.30691,-0.444498 -0.11642,-0.253999 -0.11642,-0.550332 v -2.698741 q 0,-0.211666 0.14817,-0.359832 0.14816,-0.148167 0.35983,-0.148167 0.20108,0 0.34925,0.148167 0.15875,0.148166 0.15875,0.359832 v 2.698741 q 0,0.15875 0.11641,0.275166 0.127,0.116416 0.28575,0.116416 h 6.34998 q 0.21167,0 0.35983,0.148167 0.14817,0.148166 0.14817,0.359832 0,0.211666 -0.14817,0.359832 -0.14816,0.148166 -0.35983,0.148166 z"
         style="font-family:'Space Age';-inkscape-font-specification:'Space Age, Normal';fill:#19a0a6;stroke:#000000;stroke-opacity:1;stroke-width:0.465;stroke-miterlimit:4;stroke-dasharray:none"
         id="path27971-2" />
    </g>
    <g
       aria-label="Andy O'Neill"
       id="text5930"
       style="font-size:10.5833px;line-height:1.25;stroke-width:0.264583">
      <path
         d="m 39.723677,64.084423 q 0,-0.275166 0.190499,-0.465665 0.1905,-0.1905 0.465666,-0.1905 0.275165,0 0.465665,0.1905 0.190499,0.190499 0.190499,0.465665 0,0.275166 -0.190499,0.465665 -0.1905,0.190499 -0.465665,0.190499 -0.275166,0 -0.465666,-0.190499 -0.190499,-0.190499 -0.190499,-0.465665 z m -2.233076,0.952497 q -0.15875,0.190499 -0.391582,0.190499 -0.211666,0 -0.359833,-0.148166 -0.148166,-0.148166 -0.148166,-0.359832 0,-0.1905 0.105833,-0.306916 l 2.571742,-3.460739 q 0.179916,-0.243416 0.476249,-0.391582 0.296332,-0.15875 0.634998,-0.15875 0.317499,0 0.603248,0.137583 0.285749,0.137583 0.465665,0.380999 l 2.571742,3.439573 q 0.0635,0.07408 0.105833,0.169332 0.04233,0.08467 0.04233,0.1905 0,0.211666 -0.148166,0.359832 -0.148167,0.148166 -0.359833,0.148166 -0.253999,0 -0.402165,-0.201083 L 40.79259,61.73493 q -0.07408,-0.08467 -0.190499,-0.179916 -0.105833,-0.105833 -0.222249,-0.105833 -0.116417,0 -0.232833,0.105833 -0.105833,0.09525 -0.169333,0.179916 z"
         style="font-family:'Space Age';-inkscape-font-specification:'Space Age, Normal';fill:#19a0a6"
         id="path27951" />
      <path
         d="m 52.434219,61.121099 q 0,-0.211666 0.148167,-0.359832 0.148166,-0.148167 0.359832,-0.148167 0.211666,0 0.359832,0.148167 0.148166,0.148166 0.148166,0.359832 v 3.07974 q 0,0.433915 -0.296332,0.730248 -0.285749,0.296332 -0.719665,0.296332 -0.148166,0 -0.296332,-0.04233 -0.137583,-0.04233 -0.253999,-0.116416 l -4.847151,-2.963324 q -0.201083,-0.116417 -0.338666,-0.179916 -0.127,-0.07408 -0.211666,-0.07408 -0.15875,0 -0.201083,0.201082 -0.04233,0.201083 -0.04233,0.582082 v 2.08491 q 0,0.211666 -0.148166,0.359832 -0.148166,0.148166 -0.359832,0.148166 -0.211666,0 -0.359832,-0.148166 -0.148167,-0.148166 -0.148167,-0.359832 v -3.07974 q 0,-0.433916 0.285749,-0.730248 0.296333,-0.296333 0.730248,-0.296333 0.148166,0 0.285749,0.04233 0.148166,0.04233 0.264583,0.116416 l 4.847151,2.963324 q 0.201083,0.116416 0.328082,0.190499 0.137583,0.0635 0.222249,0.0635 0.15875,0 0.201083,-0.201083 0.04233,-0.201082 0.04233,-0.582081 v -2.08491 z"
         style="font-family:'Space Age';-inkscape-font-specification:'Space Age, Normal';fill:#19a0a6"
         id="path27953" />
      <path
         d="m 60.964348,64.211422 q 0.359832,0 0.592665,-0.126999 0.232832,-0.137583 0.359832,-0.328083 0.137583,-0.190499 0.179916,-0.412748 0.05292,-0.232833 0.05292,-0.423332 0,-0.1905 -0.05292,-0.412749 -0.04233,-0.232832 -0.179916,-0.423332 -0.127,-0.190499 -0.359832,-0.317499 -0.232833,-0.137583 -0.592665,-0.137583 h -5.947815 q -0.211666,0 -0.359832,-0.148166 -0.148166,-0.148166 -0.148166,-0.359832 0,-0.211666 0.148166,-0.359832 0.148166,-0.148167 0.359832,-0.148167 h 6.170064 q 0.455082,0 0.814914,0.211666 0.359832,0.211666 0.613832,0.550332 0.253999,0.328082 0.380998,0.740831 0.137583,0.402165 0.137583,0.804331 0,0.391582 -0.126999,0.793747 -0.127,0.402166 -0.370416,0.730248 -0.232832,0.328082 -0.571498,0.550332 -0.338666,0.211666 -0.772581,0.232832 h -6.275897 q -0.211666,0 -0.359832,-0.148166 -0.148166,-0.148166 -0.148166,-0.359832 V 62.92026 q 0,-0.211666 0.148166,-0.359832 0.148166,-0.148167 0.359832,-0.148167 0.211666,0 0.359833,0.148167 0.148166,0.148166 0.148166,0.359832 v 1.291162 z"
         style="font-family:'Space Age';-inkscape-font-specification:'Space Age, Normal';fill:#19a0a6"
         id="path27955" />
      <path
         d="m 68.954728,64.719421 q 0,0.211666 -0.148166,0.359832 -0.148166,0.148166 -0.359832,0.148166 -0.211666,0 -0.359832,-0.148166 -0.148167,-0.148166 -0.148167,-0.359832 v -1.291163 q -0.402165,0 -0.783164,-0.105833 -0.380999,-0.105833 -0.804331,-0.328082 -0.412748,-0.232833 -0.888997,-0.592665 -0.476248,-0.359832 -1.068913,-0.878414 -0.08467,-0.07408 -0.148166,-0.179916 -0.05292,-0.105833 -0.05292,-0.222249 0,-0.211666 0.148166,-0.359832 0.148167,-0.148167 0.359833,-0.148167 0.105833,0 0.190499,0.04233 0.08467,0.04233 0.169333,0.105833 0.677331,0.592664 1.132413,0.93133 0.465665,0.328082 0.825497,0.486832 0.370416,0.158749 0.698498,0.201083 0.328082,0.03175 0.740831,0.03175 0.412749,0 0.730248,-0.03175 0.317499,-0.03175 0.677331,-0.1905 0.359832,-0.158749 0.814914,-0.486832 0.465665,-0.338665 1.15358,-0.941913 0.179916,-0.148167 0.359832,-0.148167 0.211666,0 0.359832,0.148167 0.148166,0.148166 0.148166,0.359832 0,0.116416 -0.0635,0.222249 -0.05292,0.105833 -0.137582,0.179916 -0.582082,0.507999 -1.068914,0.878414 -0.486832,0.359832 -0.920747,0.592665 -0.423332,0.222249 -0.814914,0.328082 -0.380999,0.105833 -0.740831,0.105833 v 1.291163 z"
         style="font-family:'Space Age';-inkscape-font-specification:'Space Age, Normal';fill:#19a0a6"
         id="path27957" />
      <path
         d="m 84.967242,64.211422 q 0.359832,0 0.592665,-0.126999 0.232832,-0.137583 0.359832,-0.328083 0.137583,-0.190499 0.179916,-0.412748 0.05292,-0.232833 0.05292,-0.423332 0,-0.1905 -0.05292,-0.412749 -0.04233,-0.232832 -0.179916,-0.423332 -0.127,-0.190499 -0.359832,-0.317499 -0.232833,-0.137583 -0.592665,-0.137583 h -4.275653 q -0.370416,0 -0.603248,0.137583 -0.22225,0.127 -0.359832,0.317499 -0.127,0.1905 -0.179917,0.423332 -0.04233,0.222249 -0.04233,0.412749 0,0.190499 0.04233,0.423332 0.05292,0.222249 0.179917,0.412748 0.137582,0.1905 0.359832,0.328083 0.232832,0.126999 0.603248,0.126999 h 4.275653 z m 2.169576,-1.291162 q 0,0.402165 -0.137583,0.814914 -0.126999,0.402165 -0.380998,0.740831 -0.254,0.328082 -0.613832,0.539748 -0.359832,0.211666 -0.814914,0.211666 h -4.825984 q -0.433916,-0.02117 -0.772581,-0.232832 -0.338666,-0.22225 -0.582082,-0.550332 -0.232832,-0.328082 -0.359832,-0.730248 -0.127,-0.402165 -0.127,-0.793747 0,-0.402166 0.127,-0.804331 0.137583,-0.412749 0.391582,-0.740831 0.253999,-0.338666 0.613831,-0.550332 Q 80.014258,60.6131 80.46934,60.6131 h 4.825984 q 0.433915,0.02117 0.772581,0.243416 0.338666,0.211666 0.571498,0.539749 0.243416,0.328082 0.370416,0.730247 0.126999,0.402166 0.126999,0.793748 z"
         style="font-family:'Space Age';-inkscape-font-specification:'Space Age, Normal';fill:#19a0a6"
         id="path27959" />
      <path
         d="m 89.211139,61.904263 q 0,0.211666 -0.148166,0.359832 -0.148166,0.148166 -0.359832,0.148166 -0.211666,0 -0.359832,-0.148166 -0.148167,-0.148166 -0.148167,-0.359832 v -0.783164 q 0,-0.211666 0.148167,-0.359832 0.148166,-0.148167 0.359832,-0.148167 0.211666,0 0.359832,0.148167 0.148166,0.148166 0.148166,0.359832 v 0.783164 z"
         style="font-family:'Space Age';-inkscape-font-specification:'Space Age, Normal';fill:#19a0a6"
         id="path27961" />
      <path
         d="m 97.476687,62.92026 q 0,-0.1905 -0.05292,-0.412749 -0.04233,-0.232832 -0.179916,-0.423332 -0.127,-0.190499 -0.359832,-0.317499 -0.232833,-0.137583 -0.592665,-0.137583 h -3.820571 q -0.370416,0 -0.603248,0.137583 -0.22225,0.127 -0.359833,0.317499 -0.126999,0.1905 -0.179916,0.423332 -0.04233,0.222249 -0.04233,0.412749 v 1.799161 q 0,0.211666 -0.148166,0.359832 -0.148166,0.148166 -0.359832,0.148166 -0.211666,0 -0.359832,-0.148166 Q 90.26946,64.931087 90.26946,64.719421 V 62.92026 q 0,-0.402166 0.127,-0.804331 0.137583,-0.412749 0.391582,-0.740831 0.253999,-0.338666 0.613831,-0.550332 0.359833,-0.211666 0.814915,-0.211666 h 4.434402 q 0.433915,0.02117 0.772581,0.243416 0.338666,0.211666 0.571498,0.539749 0.243416,0.328082 0.370416,0.730247 0.126999,0.402166 0.126999,0.793748 v 1.799161 q 0,0.211666 -0.148166,0.359832 -0.148166,0.148166 -0.359832,0.148166 -0.211666,0 -0.359832,-0.148166 -0.148167,-0.148166 -0.148167,-0.359832 V 62.92026 Z"
         style="font-family:'Space Age';-inkscape-font-specification:'Space Age, Normal';fill:#19a0a6"
         id="path27963" />
      <path
         d="m 99.551004,61.121099 q 0,-0.211666 0.148166,-0.359832 Q 99.847337,60.6131 100.059,60.6131 h 7.50356 q 0.21167,0 0.35983,0.148167 0.14817,0.148166 0.14817,0.359832 0,0.211666 -0.14817,0.359832 -0.14816,0.148166 -0.35983,0.148166 H 100.059 q -0.211663,0 -0.35983,-0.148166 -0.148166,-0.148166 -0.148166,-0.359832 z m 1.291166,4.10632 q -0.23284,0 -0.46567,-0.09525 -0.23283,-0.105833 -0.412747,-0.285749 -0.179916,-0.179916 -0.296333,-0.433915 -0.116416,-0.253999 -0.116416,-0.571498 V 62.88851 q 0,-0.285749 0.15875,-0.380999 0.169332,-0.09525 0.518586,-0.09525 h 7.10139 q 0.21167,0 0.35983,0.148167 0.14817,0.148166 0.14817,0.359832 0,0.211666 -0.14817,0.359832 -0.14816,0.148166 -0.35983,0.148166 H 100.567 v 0.518582 q 0,0.105833 0.0847,0.190499 0.0953,0.07408 0.24341,0.07408 h 6.66748 q 0.21167,0 0.35983,0.148167 0.14817,0.148166 0.14817,0.359832 0,0.211666 -0.14817,0.359832 -0.14816,0.148166 -0.35983,0.148166 z"
         style="font-family:'Space Age';-inkscape-font-specification:'Space Age, Normal';fill:#19a0a6"
         id="path27965" />
      <path
         d="m 110.14487,64.719421 q 0,0.211666 -0.14816,0.359832 -0.14817,0.148166 -0.35983,0.148166 -0.21167,0 -0.35984,-0.148166 -0.14816,-0.148166 -0.14816,-0.359832 v -3.598322 q 0,-0.211666 0.14816,-0.359832 0.14817,-0.148167 0.35984,-0.148167 0.21166,0 0.35983,0.148167 0.14816,0.148166 0.14816,0.359832 v 3.598322 z"
         style="font-family:'Space Age';-inkscape-font-specification:'Space Age, Normal';fill:#19a0a6"
         id="path27967" />
      <path
         d="m 112.65311,65.227419 q -0.29634,0 -0.56092,-0.105833 -0.26458,-0.116416 -0.46566,-0.306916 -0.1905,-0.190499 -0.30692,-0.444498 -0.11641,-0.253999 -0.11641,-0.550332 v -2.698741 q 0,-0.211666 0.14816,-0.359832 0.14817,-0.148167 0.35983,-0.148167 0.20109,0 0.34925,0.148167 0.15875,0.148166 0.15875,0.359832 v 2.698741 q 0,0.15875 0.11642,0.275166 0.127,0.116416 0.28575,0.116416 h 6.34998 q 0.21166,0 0.35983,0.148167 0.14817,0.148166 0.14817,0.359832 0,0.211666 -0.14817,0.359832 -0.14817,0.148166 -0.35983,0.148166 h -6.31823 z"
         style="font-family:'Space Age';-inkscape-font-specification:'Space Age, Normal';fill:#19a0a6"
         id="path27969" />
      <path
         d="m 121.98757,65.227419 q -0.29633,0 -0.56091,-0.105833 -0.26459,-0.116416 -0.46567,-0.306916 -0.1905,-0.190499 -0.30691,-0.444498 -0.11642,-0.253999 -0.11642,-0.550332 v -2.698741 q 0,-0.211666 0.14817,-0.359832 0.14816,-0.148167 0.35983,-0.148167 0.20108,0 0.34925,0.148167 0.15875,0.148166 0.15875,0.359832 v 2.698741 q 0,0.15875 0.11641,0.275166 0.127,0.116416 0.28575,0.116416 h 6.34998 q 0.21167,0 0.35983,0.148167 0.14817,0.148166 0.14817,0.359832 0,0.211666 -0.14817,0.359832 -0.14816,0.148166 -0.35983,0.148166 h -6.31823 z"
         style="font-family:'Space Age';-inkscape-font-specification:'Space Age, Normal';fill:#19a0a6"
         id="path27971" />
    </g>
  </g>
</svg>
